# Blender v2.83.1 OBJ File: 'gun.blend'
# www.blender.org
mtllib gun.mtl
o Cube.001
v 0.909271 -2.989421 -0.588809
v 0.909271 1.192229 -0.588809
v 0.909271 -0.898596 -0.588809
v 0.909270 0.146817 -0.588809
v 0.909271 2.237642 -0.588809
v 0.909271 -1.944009 -0.588809
v 0.369557 -2.989420 -0.893711
v 0.369557 -0.898596 -0.893710
v 0.369557 1.192229 -0.893710
v 0.369556 0.146817 -0.893710
v 0.369557 2.237642 -0.893711
v 0.369557 -1.944009 -0.893711
v 1.036224 -2.989421 -0.236551
v 1.036223 -0.898596 -0.236551
v 1.036223 1.192229 -0.236551
v 1.036223 0.146817 -0.236551
v 1.036223 2.237642 -0.236551
v 1.036223 -1.944009 -0.236551
v 0.369557 -2.989420 -0.236551
v -0.909271 -2.989420 -0.588809
v -0.909271 1.192229 -0.588809
v -0.909271 -0.898595 -0.588809
v -0.909271 0.146817 -0.588809
v -0.909271 2.237642 -0.588809
v -0.909271 -1.944008 -0.588809
v -0.369557 -2.989421 -0.893710
v -0.369557 -0.898596 -0.893710
v -0.369557 1.192229 -0.893710
v -0.369557 0.146817 -0.893710
v -0.369557 2.237642 -0.893711
v -0.369557 -1.944009 -0.893710
v -1.036224 -2.989420 -0.236551
v -1.036224 -0.898595 -0.236551
v -1.036223 1.192229 -0.236551
v -1.036224 0.146817 -0.236551
v -1.036224 2.237642 -0.236551
v -1.036224 -1.944009 -0.236551
v -0.369557 -2.989421 -0.236551
v -0.000000 -2.989421 -0.893710
v 0.000000 -0.898595 -0.893711
v -0.000000 1.192229 -0.893711
v -0.000000 0.146817 -0.893710
v 0.000000 2.237642 -0.893710
v -0.000000 -1.944008 -0.893711
v 0.000000 -2.989421 -0.236551
v 0.909271 -2.989421 1.450333
v 1.036223 -2.989421 0.430762
v 0.909271 1.192230 1.450333
v 0.909271 -0.898596 1.450333
v 1.036223 1.192230 0.430762
v 1.036223 -0.898595 0.430762
v 0.909270 0.146817 1.450332
v 1.036223 0.146817 0.430762
v 0.909271 2.237642 1.450333
v 1.036223 2.237642 0.430762
v 0.909271 -1.944012 1.450331
v 1.036223 -1.944008 0.430762
v 0.369557 -2.989420 1.755233
v 0.369557 -2.989421 0.430762
v 0.369556 -0.898595 1.755233
v 0.369557 1.192229 1.755233
v 0.369557 0.146817 1.755233
v 0.369557 2.237642 1.755233
v 0.369556 -1.944008 1.755233
v 1.036224 -2.989421 1.098074
v 1.036223 -0.898596 1.098074
v 1.036223 1.192229 1.098074
v 1.036223 0.146817 1.098074
v 1.036224 2.237642 1.098074
v 1.036223 -1.944008 1.098074
v 0.369557 -2.989421 1.098074
v -0.909271 -2.989421 1.450333
v -1.036224 -2.989419 0.430762
v -0.909271 1.192229 1.450333
v -0.909271 -0.898595 1.450333
v -1.036223 1.192229 0.430762
v -1.036223 -0.898595 0.430762
v -0.909271 0.146817 1.450333
v -1.036224 0.146817 0.430762
v -0.909271 2.237642 1.450333
v -1.036224 2.237642 0.430762
v -0.909271 -1.944008 1.450333
v -1.036224 -1.944008 0.430762
v -0.369557 -2.989420 1.755233
v -0.369557 -2.989421 0.430762
v -0.369557 -0.898595 1.755233
v -0.369557 1.192229 1.755233
v -0.369557 0.146817 1.755233
v -0.369557 2.237642 1.755233
v -0.369557 -1.944008 1.755233
v -1.036224 -2.989419 1.098074
v -1.036224 -0.898596 1.098074
v -1.036223 1.192229 1.098074
v -1.036224 0.146817 1.098074
v -1.036224 2.237642 1.098074
v -1.036223 -1.944008 1.098074
v -0.369557 -2.989421 1.098074
v 0.000000 -2.989420 1.755233
v 0.000000 -2.989421 0.430762
v -0.000000 -0.898596 1.755233
v -0.000000 1.192229 1.755233
v -0.000000 0.146817 1.755233
v -0.000000 2.237642 1.755233
v -0.000000 -1.944008 1.755233
v 0.000000 -2.989420 1.098074
v -0.367551 1.565703 2.753164
v -0.356957 1.482940 2.340030
v 0.329823 1.559862 2.772216
v 0.340417 1.477100 2.359083
v -0.888181 3.570477 8.417717
v -0.988601 3.510257 8.803978
v -0.845390 3.371834 8.803003
v -0.786904 3.472555 8.417023
v -0.891486 5.111341 8.427225
v -0.790598 5.209910 8.427691
v -0.849489 5.305692 8.814869
v -0.992166 5.166294 8.814208
v -1.253616 3.043761 -1.162684
v -1.354733 3.142097 -1.162684
v -1.253616 3.142097 -1.549168
v -1.253617 5.678729 -1.162684
v -1.253616 5.580393 -1.549168
v -1.354733 5.580393 -1.162684
v 0.899227 3.575174 8.415464
v 0.798300 3.476678 8.415058
v 0.858220 3.376378 8.800932
v 1.000962 3.515647 8.801498
v 0.896154 5.115686 8.424572
v 0.997711 5.171064 8.811274
v 0.854409 5.309659 8.812384
v 0.794836 5.213602 8.425381
v 1.253616 3.043761 -1.162684
v 1.253616 3.142097 -1.549168
v 1.354733 3.142097 -1.162684
v 1.253616 5.678728 -1.162684
v 1.354732 5.580393 -1.162684
v 1.253616 5.580393 -1.549168
v -1.246893 3.023559 8.415070
v -1.103492 3.119689 8.801868
v -1.246730 3.258218 8.802849
v -1.348132 3.121390 8.415718
v -1.251412 5.417238 8.816157
v -1.108736 5.556636 8.816819
v -1.252532 5.657051 8.431166
v -1.353420 5.558482 8.430698
v 1.254691 5.662889 8.427509
v 1.112489 5.561808 8.813580
v 1.255811 5.423076 8.812500
v 1.356035 5.564791 8.426746
v 1.259697 3.030406 8.412479
v 1.360828 3.128474 8.412609
v 1.260067 3.264867 8.799826
v 1.117290 3.125667 8.799309
v -0.893836 3.590320 8.420408
v -0.792720 3.491984 8.420409
v -0.792720 3.590320 8.033924
v -0.893836 5.132169 8.420408
v -0.792720 5.132169 8.033924
v -0.792720 5.230505 8.420408
v 0.893836 3.590320 8.420408
v 0.792720 3.590320 8.033924
v 0.792720 3.491984 8.420408
v 0.893836 5.132169 8.420409
v 0.792720 5.230505 8.420409
v 0.792720 5.132169 8.033924
v -0.335358 3.043761 2.027908
v -0.347232 3.045268 2.457004
v 0.350327 3.044149 2.475316
v 0.362097 3.043761 2.045792
v -0.000000 3.043761 -0.893710
v -0.369557 3.043761 -0.893710
v 0.909271 3.043761 -0.588809
v 0.369557 3.043761 -0.893710
v 1.036223 3.043761 -0.236551
v 1.036224 3.043761 0.430762
v -0.909271 3.043761 -0.588809
v -1.036224 3.043761 -0.236551
v -1.027661 3.043761 -0.260309
v -1.036224 3.043761 0.430762
v 1.013668 3.043761 -0.299136
v 1.035824 3.047029 1.097087
v 0.908954 3.046536 1.449435
v 0.456428 3.044205 1.705982
v 0.369542 3.043895 1.755188
v 0.000000 3.043761 1.755233
v -0.369557 3.043761 1.755233
v -0.909559 3.045893 1.449763
v -0.548388 3.044913 1.653946
v -1.036442 3.045257 1.097717
vt 0.426856 0.801856
vt 0.573144 0.801856
vt 0.573144 0.948144
vt 0.426856 0.948144
vt 0.384330 0.259330
vt 0.615670 0.259330
vt 0.615670 0.490670
vt 0.384330 0.490670
vt 0.634330 0.509330
vt 0.865670 0.509330
vt 0.865670 0.740670
vt 0.634330 0.740670
vt 0.408197 0.796391
vt 0.408197 0.953609
vt 0.384330 0.977476
vt 0.384330 0.772524
vt 0.384330 0.009330
vt 0.615670 0.009330
vt 0.615670 0.240670
vt 0.384330 0.240670
vt 0.426856 0.792527
vt 0.573144 0.792527
vt 0.573144 0.792527
vt 0.426856 0.792527
vt 0.417527 0.948144
vt 0.417527 0.801856
vt 0.417527 0.801856
vt 0.417527 0.948144
vt 0.384330 0.509330
vt 0.615670 0.509330
vt 0.615670 0.740670
vt 0.384330 0.740670
vt 0.582474 0.801856
vt 0.582474 0.948144
vt 0.582474 0.948144
vt 0.582474 0.801856
vt 0.134330 0.509330
vt 0.365670 0.509330
vt 0.343530 0.530176
vt 0.333898 0.523183
vt 0.284099 0.515823
vt 0.250000 0.515823
vt 0.215901 0.515823
vt 0.166102 0.523183
vt 0.155179 0.531114
vt 0.421391 0.966803
vt 0.578609 0.966803
vt 0.602476 0.990670
vt 0.397524 0.990670
vt 0.591803 0.953609
vt 0.591803 0.796391
vt 0.615670 0.772524
vt 0.615670 0.977476
vt 0.578609 0.783197
vt 0.421391 0.783197
vt 0.397524 0.759330
vt 0.602476 0.759330
vt 0.426856 0.957473
vt 0.573144 0.957474
vt 0.125000 0.509330
vt 0.134330 0.500000
vt 0.865670 0.500000
vt 0.875000 0.509330
vt 0.365670 0.500000
vt 0.375000 0.509330
vt 0.625000 0.509330
vt 0.634330 0.500000
vt 0.134330 0.740670
vt 0.147524 0.750000
vt 0.134330 0.750000
vt 0.125000 0.740670
vt 0.609073 0.984073
vt 0.620335 0.995335
vt 0.615670 1.000000
vt 0.647524 0.750000
vt 0.634330 0.750000
vt 0.625000 0.740670
vt 0.365670 0.740670
vt 0.375000 0.740670
vt 0.365670 0.750000
vt 0.352476 0.750000
vt 0.426856 0.957473
vt 0.573144 0.957474
vt 0.384330 1.000000
vt 0.875000 0.740670
vt 0.852476 0.750000
vt 0.282327 0.597157
vt 0.283410 0.586784
vt 0.292119 0.578584
vt 0.333898 0.572409
vt 0.345611 0.563906
vt 0.345611 0.547796
vt 0.345611 0.531687
vt 0.154389 0.531687
vt 0.154389 0.547796
vt 0.154389 0.563906
vt 0.166102 0.572409
vt 0.199414 0.577333
vt 0.217974 0.596725
vt 0.215901 0.579770
vt 0.250000 0.579770
vt 0.284099 0.579770
vt 0.219057 0.586352
vt 0.583333 0.916667
vt 0.615463 0.916667
vt 0.615463 1.000000
vt 0.583333 1.000000
vt 0.333333 0.564373
vt 0.365463 0.564373
vt 0.365463 0.625000
vt 0.333333 0.625000
vt 0.541667 0.564373
vt 0.625000 0.564373
vt 0.625000 0.625000
vt 0.541667 0.625000
vt 0.166667 0.564373
vt 0.208333 0.564373
vt 0.208333 0.625000
vt 0.166667 0.625000
vt 0.250000 0.564373
vt 0.291667 0.564373
vt 0.291667 0.625000
vt 0.250000 0.625000
vt 0.416667 0.916667
vt 0.458333 0.916667
vt 0.458333 1.000000
vt 0.416667 1.000000
vt 0.500000 0.916667
vt 0.541667 0.916667
vt 0.541667 1.000000
vt 0.500000 1.000000
vt 0.375000 0.916667
vt 0.375000 1.000000
vt 0.125000 0.564373
vt 0.125000 0.625000
vt 0.375000 0.875000
vt 0.416667 0.875000
vt 0.541667 0.875000
vt 0.583333 0.875000
vt 0.458333 0.875000
vt 0.500000 0.875000
vt 0.500000 0.564373
vt 0.500000 0.625000
vt 0.615463 0.875000
vt 0.500000 0.500000
vt 0.541667 0.500000
vt 0.125000 0.500000
vt 0.166667 0.500000
vt 0.291667 0.500000
vt 0.333333 0.500000
vt 0.208333 0.500000
vt 0.250000 0.500000
vt 0.625000 0.500000
vt 0.365463 0.500000
vt 0.365463 0.552936
vt 0.583333 0.916667
vt 0.583333 1.000000
vt 0.615463 1.000000
vt 0.615463 0.916667
vt 0.333333 0.564373
vt 0.333333 0.625000
vt 0.365463 0.625000
vt 0.365463 0.564373
vt 0.541667 0.564373
vt 0.541667 0.625000
vt 0.625000 0.625000
vt 0.625000 0.564373
vt 0.166667 0.564373
vt 0.166667 0.625000
vt 0.208333 0.625000
vt 0.208333 0.564373
vt 0.250000 0.564373
vt 0.250000 0.625000
vt 0.291667 0.625000
vt 0.291667 0.564373
vt 0.416667 0.916667
vt 0.416667 1.000000
vt 0.458333 1.000000
vt 0.458333 0.916667
vt 0.500000 0.916667
vt 0.500000 1.000000
vt 0.541667 1.000000
vt 0.541667 0.916667
vt 0.375000 0.916667
vt 0.375000 1.000000
vt 0.125000 0.564373
vt 0.125000 0.625000
vt 0.541667 0.500000
vt 0.125000 0.500000
vt 0.166667 0.500000
vt 0.291667 0.500000
vt 0.333333 0.500000
vt 0.208333 0.500000
vt 0.250000 0.500000
vt 0.625000 0.500000
vt 0.365463 0.560031
vt 0.365463 0.500000
vt 0.583333 0.916667
vt 0.583333 1.000000
vt 0.615463 1.000000
vt 0.615463 0.930087
vt 0.615463 0.916667
vt 0.333333 0.564373
vt 0.365463 0.564373
vt 0.541667 0.564373
vt 0.625000 0.564373
vt 0.166667 0.564373
vt 0.208333 0.564373
vt 0.250000 0.564373
vt 0.291667 0.564373
vt 0.416667 0.916667
vt 0.416667 1.000000
vt 0.458333 1.000000
vt 0.458333 0.916667
vt 0.500000 0.916667
vt 0.500000 1.000000
vt 0.541667 1.000000
vt 0.541667 0.916667
vt 0.375000 0.916667
vt 0.375000 1.000000
vt 0.125000 0.564373
vt 0.375000 0.875000
vt 0.416667 0.875000
vt 0.541667 0.875000
vt 0.583333 0.875000
vt 0.458333 0.875000
vt 0.500000 0.875000
vt 0.500000 0.564373
vt 0.615463 0.875000
vt 0.500000 0.500000
vt 0.541667 0.500000
vt 0.125000 0.500000
vt 0.166667 0.500000
vt 0.291667 0.500000
vt 0.333333 0.500000
vt 0.208333 0.500000
vt 0.250000 0.500000
vt 0.625000 0.500000
vt 0.365463 0.500000
vt 0.583333 0.916667
vt 0.615463 0.916667
vt 0.615463 0.944257
vt 0.615463 1.000000
vt 0.583333 1.000000
vt 0.333333 0.564373
vt 0.365463 0.564373
vt 0.541667 0.564373
vt 0.625000 0.564373
vt 0.166667 0.564373
vt 0.208333 0.564373
vt 0.250000 0.564373
vt 0.291667 0.564373
vt 0.416667 0.916667
vt 0.458333 0.916667
vt 0.458333 1.000000
vt 0.416667 1.000000
vt 0.500000 0.916667
vt 0.541667 0.916667
vt 0.541667 1.000000
vt 0.500000 1.000000
vt 0.375000 0.916667
vt 0.375000 1.000000
vt 0.125000 0.564373
vt 0.541667 0.500000
vt 0.125000 0.500000
vt 0.166667 0.500000
vt 0.291667 0.500000
vt 0.333333 0.500000
vt 0.208333 0.500000
vt 0.250000 0.500000
vt 0.625000 0.500000
vt 0.365463 0.500000
vt 0.375000 0.000000
vt 0.563455 0.000000
vt 0.574007 0.250000
vt 0.375000 0.250000
vt 0.574752 0.500000
vt 0.375000 0.500000
vt 0.564200 0.750000
vt 0.375000 0.750000
vt 0.563455 1.000000
vt 0.375000 1.000000
vt 0.125000 0.500000
vt 0.125000 0.750000
vn 0.0000 0.0000 1.0000
vn 0.0000 0.0000 -1.0000
vn -0.0012 1.0000 0.0020
vn 0.0012 -0.0055 1.0000
vn -1.0000 -0.0011 0.0004
vn 0.0891 -0.0029 0.9960
vn 0.0009 -0.2436 0.9699
vn 1.0000 0.0010 -0.0004
vn -0.0003 -0.3107 -0.9505
vn 0.0000 -1.0000 0.0000
vn 0.0016 -0.0062 1.0000
vn 0.0015 -0.0063 1.0000
vn 0.0009 -0.0059 1.0000
vn 0.6680 0.6890 0.2811
vn 0.6717 -0.6888 0.2726
vn -0.6859 -0.7053 -0.1794
vn -0.6859 0.7053 -0.1794
vn -0.6705 0.6860 0.2825
vn -0.6673 -0.6924 0.2745
vn 0.6859 -0.7053 -0.1794
vn 0.6859 0.7053 -0.1794
vn -0.6357 -0.6603 0.3998
vn -0.6390 0.6521 0.4080
vn 0.6371 0.6550 0.4062
vn 0.6392 -0.6582 0.3978
vn 0.6859 0.7053 0.1794
vn 0.6859 -0.7053 0.1794
vn -0.6859 0.7053 0.1794
vn -0.6859 -0.7053 0.1794
vn -0.6960 -0.7180 -0.0010
vn -0.9670 -0.0037 0.2546
vn -0.6980 0.7161 0.0017
vn -0.9674 0.0000 -0.2531
vn 0.0000 -0.9691 -0.2466
vn 0.0000 0.9691 -0.2466
vn 0.9674 0.0000 -0.2531
vn 0.6967 -0.7174 -0.0015
vn 0.6963 0.7177 0.0011
vn 0.9678 0.0004 0.2517
vn 0.0029 -0.9707 0.2402
vn -0.0019 0.9676 0.2526
vn 0.9678 0.0005 0.2517
vn -0.9671 -0.0034 0.2544
vn -0.0022 0.9677 0.2520
vn 0.0026 -0.9706 0.2405
vn 0.0012 -0.0058 1.0000
vn 0.0013 -0.0052 1.0000
vn 0.9674 0.0000 0.2531
vn -0.9674 -0.0000 0.2531
vn 0.0000 0.9691 0.2466
vn -0.0000 -0.9691 0.2466
vn 0.2288 -0.2368 0.9443
vn -0.1961 -0.2057 0.9588
vn 0.2775 -0.2826 -0.9182
vn -0.2828 -0.2879 -0.9150
vn 0.4709 0.0032 -0.8822
vn 0.0019 -1.0000 -0.0026
vn -0.0022 -1.0000 0.0005
vn 0.4919 0.0000 -0.8707
vn 1.0000 -0.0000 -0.0000
vn 0.9408 0.0000 -0.3390
vn -0.4919 -0.0000 -0.8707
vn -1.0000 0.0000 0.0000
vn -0.9408 0.0000 -0.3390
vn -0.9408 -0.0000 -0.3391
vn 0.4925 0.0006 0.8703
vn 1.0000 0.0002 0.0003
vn 0.4919 -0.0000 0.8707
vn 0.0001 0.0000 1.0000
vn 0.9408 0.0000 0.3391
vn 0.9408 0.0000 0.3390
vn 0.9408 0.0008 0.3389
vn -0.4921 0.0003 0.8705
vn -1.0000 -0.0001 -0.0002
vn -0.4919 0.0000 0.8707
vn -0.9408 -0.0000 0.3390
vn -0.9408 -0.0000 0.3391
vn -0.9408 -0.0001 0.3391
vn -0.9996 0.0083 -0.0275
vn 0.0251 -0.1964 -0.9802
vn 0.9996 -0.0084 0.0274
vn -0.0253 0.1965 0.9802
vn -0.0136 -0.9805 0.1961
usemtl Material
s off
f 161/1/1 165/2/1 158/3/1 156/4/1
usemtl Material.001
f 120/5/2 122/6/2 137/7/2 133/8/2
f 135/9/3 121/10/3 144/11/3 146/12/3
f 126/13/4 112/14/4 139/15/4 153/16/4
f 141/17/5 145/18/5 123/19/5 119/20/5
f 124/21/6 128/22/6 163/23/6 160/24/6
f 113/25/7 125/26/7 162/27/7 155/28/7
f 134/29/8 136/30/8 149/31/8 151/32/8
f 131/33/9 115/34/9 159/35/9 164/36/9
f 118/37/10 132/38/10 180/39/10 172/40/10 173/41/10 170/42/10 171/43/10 176/44/10 178/45/10
f 111/46/11 117/47/11 142/48/11 140/49/11
f 116/50/12 130/51/12 147/52/12 143/53/12
f 129/54/13 127/55/13 152/56/13 148/57/13
f 110/58/14 111/46/14 112/14/14 113/25/14
f 114/59/15 115/34/15 116/50/15 117/47/15
f 118/37/16 119/60/16 120/61/16
f 121/10/17 122/62/17 123/63/17
f 124/21/18 125/26/18 126/13/18 127/55/18
f 128/22/19 129/54/19 130/51/19 131/33/19
f 132/38/20 133/64/20 134/65/20
f 135/9/21 136/66/21 137/67/21
f 138/68/22 139/69/22 140/70/22 141/71/22
f 142/48/23 143/72/23 144/73/23 145/74/23
f 146/12/24 147/75/24 148/76/24 149/77/24
f 150/78/25 151/79/25 152/80/25 153/81/25
f 154/82/26 155/28/26 156/4/26
f 157/83/27 158/3/27 159/35/27
f 160/24/28 161/1/28 162/27/28
f 163/23/29 164/36/29 165/2/29
f 118/37/30 138/68/30 141/71/30 119/60/30
f 140/49/31 142/48/31 145/74/31 141/84/31
f 144/11/32 121/10/32 123/63/32 145/85/32
f 122/6/33 120/5/33 119/20/33 123/19/33
f 132/38/34 118/37/34 120/61/34 133/64/34
f 121/10/35 135/9/35 137/67/35 122/62/35
f 136/30/36 134/29/36 133/8/36 137/7/36
f 150/78/37 132/38/37 134/29/37 151/32/37
f 135/9/38 146/12/38 149/31/38 136/30/38
f 148/57/39 152/56/39 151/32/39 149/31/39
f 138/68/40 150/78/40 153/81/40 139/69/40
f 146/12/41 144/11/41 143/86/41 147/75/41
f 110/58/42 114/59/42 117/47/42 111/46/42
f 128/22/43 124/21/43 127/55/43 129/54/43
f 112/14/44 126/13/44 125/26/44 113/25/44
f 130/51/45 116/50/45 115/34/45 131/33/45
f 139/15/46 112/14/46 111/46/46 140/49/46
f 116/50/12 143/53/12 142/48/12 117/47/12
f 147/52/12 130/51/12 129/54/12 148/57/12
f 126/13/47 153/16/47 152/56/47 127/55/47
f 156/4/48 158/3/48 157/83/48 154/82/48
f 165/2/49 161/1/49 160/24/49 163/23/49
f 155/28/50 162/27/50 161/1/50 156/4/50
f 164/36/51 159/35/51 158/3/51 165/2/51
f 124/21/52 160/24/52 162/27/52 125/26/52
f 154/82/53 110/58/53 113/25/53 155/28/53
f 159/35/54 115/34/54 114/59/54 157/83/54
f 163/23/55 128/22/55 131/33/55 164/36/55
f 114/59/56 110/58/56 154/82/56 157/83/56
f 168/87/57 169/88/57 183/89/57 182/90/57 181/91/57 175/92/57 174/93/57 180/39/57 132/38/57 150/78/57 138/68/57 118/37/57 178/45/57 177/94/57 179/95/57 189/96/57 187/97/57 188/98/57 167/99/57
f 188/98/58 186/100/58 185/101/58 184/102/58 183/89/58 169/88/58 166/103/58 167/99/58
usemtl Wood
f 11/104/59 173/105/59 172/106/59 5/107/59
f 17/108/60 174/109/60 175/110/60 55/111/60
f 19/112/10 13/113/10 47/114/10 59/115/10
f 18/116/60 14/117/60 51/118/60 57/119/60
f 16/120/60 15/121/60 50/122/60 53/123/60
f 12/124/59 8/125/59 3/126/59 6/127/59
f 10/128/59 9/129/59 2/130/59 4/131/59
f 8/125/59 10/128/59 4/131/59 3/126/59
f 14/117/60 16/120/60 53/123/60 51/118/60
f 15/121/60 17/108/60 55/111/60 50/122/60
f 9/129/59 11/104/59 5/107/59 2/130/59
f 7/132/59 12/124/59 6/127/59 1/133/59
f 13/134/60 18/116/60 57/119/60 47/135/60
f 39/136/2 44/137/2 12/124/2 7/132/2
f 41/138/2 43/139/2 11/104/2 9/129/2
f 40/140/2 42/141/2 10/128/2 8/125/2
f 42/141/2 41/138/2 9/129/2 10/128/2
f 44/137/2 40/140/2 8/125/2 12/124/2
f 45/142/10 19/112/10 59/115/10 99/143/10
f 43/139/2 170/144/2 173/105/2 11/104/2
f 39/145/10 7/146/10 19/112/10 45/142/10
f 1/147/61 6/148/61 18/116/61 13/134/61
f 2/149/61 5/150/61 17/108/61 15/121/61
f 3/151/61 4/152/61 16/120/61 14/117/61
f 4/152/61 2/149/61 15/121/61 16/120/61
f 6/148/61 3/151/61 14/117/61 18/116/61
f 7/146/10 1/153/10 13/113/10 19/112/10
f 5/150/61 172/154/61 180/155/61 174/109/61 17/108/61
f 30/156/62 24/157/62 176/158/62 171/159/62
f 36/160/63 81/161/63 179/162/63 177/163/63
f 38/164/10 85/165/10 73/166/10 32/167/10
f 37/168/63 83/169/63 77/170/63 33/171/63
f 35/172/63 79/173/63 76/174/63 34/175/63
f 31/176/62 25/177/62 22/178/62 27/179/62
f 29/180/62 23/181/62 21/182/62 28/183/62
f 27/179/62 22/178/62 23/181/62 29/180/62
f 33/171/63 77/170/63 79/173/63 35/172/63
f 34/175/63 76/174/63 81/161/63 36/160/63
f 28/183/62 21/182/62 24/157/62 30/156/62
f 26/184/62 20/185/62 25/177/62 31/176/62
f 32/186/63 73/187/63 83/169/63 37/168/63
f 39/136/2 26/184/2 31/176/2 44/137/2
f 41/138/2 28/183/2 30/156/2 43/139/2
f 40/140/2 27/179/2 29/180/2 42/141/2
f 42/141/2 29/180/2 28/183/2 41/138/2
f 44/137/2 31/176/2 27/179/2 40/140/2
f 45/142/10 99/143/10 85/165/10 38/164/10
f 43/139/2 30/156/2 171/159/2 170/144/2
f 39/145/10 45/142/10 38/164/10 26/188/10
f 20/189/64 32/186/64 37/168/64 25/190/64
f 21/191/65 34/175/65 36/160/65 24/192/65
f 22/193/64 33/171/64 35/172/64 23/194/64
f 23/194/64 35/172/64 34/175/64 21/191/64
f 25/190/64 37/168/64 33/171/64 22/193/64
f 26/188/10 38/164/10 32/167/10 20/195/10
f 24/192/64 36/160/64 177/163/64 178/196/64 176/197/64
f 63/198/66 54/199/66 182/200/66 183/201/66 184/202/66
f 69/203/67 55/111/67 175/110/67 181/204/67
f 71/205/10 59/115/10 47/114/10 65/206/10
f 70/207/60 57/119/60 51/118/60 66/208/60
f 68/209/60 53/123/60 50/122/60 67/210/60
f 64/211/68 56/212/68 49/213/68 60/214/68
f 62/215/68 52/216/68 48/217/68 61/218/68
f 60/214/68 49/213/68 52/216/68 62/215/68
f 66/208/60 51/118/60 53/123/60 68/209/60
f 67/210/60 50/122/60 55/111/60 69/203/60
f 61/218/68 48/217/68 54/199/68 63/198/68
f 58/219/68 46/220/68 56/212/68 64/211/68
f 65/221/60 47/135/60 57/119/60 70/207/60
f 98/222/1 58/219/1 64/211/1 104/223/1
f 101/224/1 61/218/1 63/198/1 103/225/1
f 100/226/1 60/214/1 62/215/1 102/227/1
f 102/227/1 62/215/1 61/218/1 101/224/1
f 104/223/1 64/211/1 60/214/1 100/226/1
f 105/228/10 99/143/10 59/115/10 71/205/10
f 103/225/69 63/198/69 184/202/69 185/229/69
f 98/230/10 105/228/10 71/205/10 58/231/10
f 46/232/70 65/221/70 70/207/70 56/233/70
f 48/234/70 67/210/70 69/203/70 54/235/70
f 49/236/71 66/208/71 68/209/71 52/237/71
f 52/237/70 68/209/70 67/210/70 48/234/70
f 56/233/70 70/207/70 66/208/70 49/236/70
f 58/231/10 71/205/10 65/206/10 46/238/10
f 54/235/72 69/203/72 181/204/72 182/239/72
f 89/240/73 186/241/73 188/242/73 187/243/73 80/244/73
f 95/245/74 189/246/74 179/162/74 81/161/74
f 97/247/10 91/248/10 73/166/10 85/165/10
f 96/249/63 92/250/63 77/170/63 83/169/63
f 94/251/63 93/252/63 76/174/63 79/173/63
f 90/253/75 86/254/75 75/255/75 82/256/75
f 88/257/75 87/258/75 74/259/75 78/260/75
f 86/254/75 88/257/75 78/260/75 75/255/75
f 92/250/63 94/251/63 79/173/63 77/170/63
f 93/252/63 95/245/63 81/161/63 76/174/63
f 87/258/75 89/240/75 80/244/75 74/259/75
f 84/261/75 90/253/75 82/256/75 72/262/75
f 91/263/63 96/249/63 83/169/63 73/187/63
f 98/222/1 104/223/1 90/253/1 84/261/1
f 101/224/1 103/225/1 89/240/1 87/258/1
f 100/226/1 102/227/1 88/257/1 86/254/1
f 102/227/1 101/224/1 87/258/1 88/257/1
f 104/223/1 100/226/1 86/254/1 90/253/1
f 105/228/10 97/247/10 85/165/10 99/143/10
f 103/225/1 185/229/1 186/241/1 89/240/1
f 98/230/10 84/264/10 97/247/10 105/228/10
f 72/265/76 82/266/76 96/249/76 91/263/76
f 74/267/76 80/268/76 95/245/76 93/252/76
f 75/269/77 78/270/77 94/251/77 92/250/77
f 78/270/76 74/267/76 93/252/76 94/251/76
f 82/266/76 75/269/76 92/250/76 96/249/76
f 84/264/10 72/271/10 91/248/10 97/247/10
f 80/268/78 187/272/78 189/246/78 95/245/78
usemtl Silver
f 106/273/79 167/274/79 166/275/79 107/276/79
f 107/276/80 166/275/80 169/277/80 109/278/80
f 109/278/81 169/277/81 168/279/81 108/280/81
f 108/280/82 168/279/82 167/281/82 106/282/82
f 107/283/83 109/278/83 108/280/83 106/284/83
